<svg xmlns="http://www.w3.org/2000/svg" xmlns:svg="http://www.w3.org/2000/svg" id="svg49017" width="1024" height="1024" version="1.1" viewBox="0 0 270.933 270.933"><metadata id="metadata49014"/><g id="layer1" transform="translate(0,-26.06665)"><path style="fill:#fff;fill-rule:evenodd;stroke:none;stroke-width:.26458332000000001px;stroke-linecap:butt;stroke-linejoin:miter;stroke-opacity:1" id="path970" d="M 0.5544881,161.53331 68.009801,44.695487 H 202.92404 l 67.4548,116.837823 -67.4548,116.83783 H 68.009801 Z"/><path style="color:#000;font-style:normal;font-variant:normal;font-weight:400;font-stretch:normal;font-size:medium;line-height:normal;font-family:sans-serif;font-variant-ligatures:normal;font-variant-position:normal;font-variant-caps:normal;font-variant-numeric:normal;font-variant-alternates:normal;font-feature-settings:normal;text-indent:0;text-align:start;text-decoration:none;text-decoration-line:none;text-decoration-style:solid;text-decoration-color:#000;letter-spacing:normal;word-spacing:normal;text-transform:none;writing-mode:lr-tb;direction:ltr;text-orientation:mixed;dominant-baseline:auto;baseline-shift:baseline;text-anchor:start;white-space:normal;shape-padding:0;clip-rule:nonzero;display:inline;overflow:visible;visibility:visible;opacity:1;isolation:auto;mix-blend-mode:normal;color-interpolation:sRGB;color-interpolation-filters:linearRGB;solid-color:#000;solid-opacity:1;vector-effect:none;fill:#000;fill-opacity:1;fill-rule:nonzero;stroke:none;stroke-width:143.62203979;stroke-linecap:butt;stroke-linejoin:miter;stroke-miterlimit:4;stroke-dasharray:none;stroke-dashoffset:0;stroke-opacity:1;color-rendering:auto;image-rendering:auto;shape-rendering:auto;text-rendering:auto;enable-background:accumulate" id="path49627" d="M 257.04492 70.408203 L 2.0957031 512 L 257.04492 953.5918 L 345.98242 953.5918 L 428.9043 809.96875 L 339.96484 809.96875 L 174.55273 523.4707 L 520.9043 523.4707 L 672.16211 785 L 829.9707 512.13477 L 672.16211 238.16211 L 520.88281 500.79297 L 174.40039 500.79297 L 339.96484 214.0293 L 428.91602 214.0293 L 345.99609 70.408203 L 257.04492 70.408203 z M 372.18164 70.408203 L 455.10156 214.0293 L 684.03516 214.0293 L 856.0625 512 L 684.02734 809.96875 L 455.08984 809.96875 L 372.16797 953.5918 L 766.95703 953.5918 L 787.68359 917.68555 L 1021.9043 512 L 766.95703 70.408203 L 372.18164 70.408203 z" transform="matrix(0.26458333,0,0,0.26458333,0,26.06665)"/></g></svg>